# xmcd
#
# Track frame offsets:
#	150
#	17875
#	33337
#	50368
#	74940
#	93882
#	112304
#	132741
#	150648
#	167997
#	183878
#	203893
#
# Disc length: 2983 seconds
#
# Revision: 0
# Processed by: cddbd v1.5PL3 Copyright (c) Steve Scherf et al.
# Submitted via: dBpowerAMP V4.0
#
DISCID=b10ba50c
DTITLE=Ferdi Tayfur - Huzurum Kalmadý '77
DYEAR=1977
DGENRE=Undefined
TTITLE0=Huzurum Kalmadý
TTITLE1=Gelme Artýk
TTITLE2=Birgün Gelir Ayrýlýrsýn
TTITLE3=Sevgili Yarim
TTITLE4=Kalp Yarasý
TTITLE5=Almanya Treni
TTITLE6=Beddua
TTITLE7=Kaderimsin
TTITLE8=Hatýra Defteri
TTITLE9=Dertsiz Olsam Ýçermiyim
TTITLE10=Ýnanmadýn Sevdiðime
TTITLE11=Hayat Adamý Oldum
EXTD=
EXTT0=
EXTT1=
EXTT2=
EXTT3=
EXTT4=
EXTT5=
EXTT6=
EXTT7=
EXTT8=
EXTT9=
EXTT10=
EXTT11=
PLAYORDER=
